<svg xmlns="http://www.w3.org/2000/svg" viewBox="0 0 999.02 864.55"><defs><style>.cls-1{fill:#9bc7d1;}.cls-2{fill:#fff;}.cls-3{fill:#e41d20;}.cls-4{fill:#dadada;}.cls-5{fill:#afafaf;}.cls-6{fill:#a4a3a2;}.cls-7{fill:#1d1d1b;}</style></defs><g id="Capa_12" data-name="Capa 12"><path class="cls-1" d="M766.34,558,644.61,763.38c46.73-42,109.34-54.47,157-31.12,52,25.47,67.08,84,69.86,94.75a162.58,162.58,0,0,1,.86,76.43c11.09-2.84,28.43-5.32,47.55.35,35,10.39,61.26,43.81,69.17,85.76H52.57c-23-54.8-8.18-118.07,36-155.62,40.89-34.79,99.79-41.43,148.7-16.6-5.88-63.2,24.27-123.46,76.78-153.54,58.81-33.71,126.82-10.72,140.4-6.23a192.27,192.27,0,0,1,40.11,18.68L696.48,504Z" transform="translate(-41.81 -125)"/></g><g id="Capa_11" data-name="Capa 11"><path class="cls-2" d="M755.27,549.67,595.85,807c55.2-36,118-42.28,155.62-14.53,27.91,20.6,41.79,59.81,44.61,67.78a173.42,173.42,0,0,1,9.85,57.24c4-1.35,30.49-9.68,57.07,5.7,25,14.46,31.58,39.18,32.68,43.57l-782.94,1.39c-.13-48.91,27.27-92.59,69.16-110.66,47.79-20.62,92.52,1.54,98.91,4.84,4-71.27,47.32-129.08,104.44-143.86,44.68-11.57,83.52,6.91,96.48,13.83l224.09-218.9Z" transform="translate(-41.81 -125)"/></g><g id="Capa_7" data-name="Capa 7"><polygon class="cls-3" points="902.97 330.6 923.37 450.95 851.79 529.1 807.17 420.52 902.97 330.6"/></g><g id="Capa_8" data-name="Capa 8"><polygon class="cls-3" points="693.75 173.6 571.33 182.25 515.65 278.38 650.87 284.26 693.75 173.6"/></g><g id="Capa_9" data-name="Capa 9"><path class="cls-4" d="M668.21,434c-3,2.65-8.79,8.68-10.63,17.9C657,454.7,656,461.94,661.73,475c2.44,5.55,8.08,16.64,26.19,33.46a217.34,217.34,0,0,0,34.24,25.93l19.39-23.6Z" transform="translate(-41.81 -125)"/></g><g id="Capa_10" data-name="Capa 10"><path class="cls-5" d="M826.42,557.19a37.67,37.67,0,0,1-13.22,9.59c-6.38,2.71-16.59,4.79-39.17-3.11a172.71,172.71,0,0,1-51.87-29.31l19.39-23.79Z" transform="translate(-41.81 -125)"/></g><g id="Capa_4" data-name="Capa 4"><path class="cls-2" d="M1038.84,125c-41.93,4.3-132.26,19.32-222.7,84.38C714.89,282.21,671.79,375.82,656.37,414.8a186.62,186.62,0,0,0,82.26,100.76Z" transform="translate(-41.81 -125)"/></g><g id="Capa_5" data-name="Capa 5"><path class="cls-4" d="M1038.84,125A484,484,0,0,1,842.42,560a170.56,170.56,0,0,1-104.7-45Q888.29,320,1038.84,125Z" transform="translate(-41.81 -125)"/></g><g id="Capa_2" data-name="Capa 2"><circle class="cls-6" cx="870.37" cy="163.83" r="67"/></g><g id="Capa_3" data-name="Capa 3"><circle class="cls-7" cx="870.76" cy="163.66" r="53.6"/></g></svg>